<svg width="25" height="16" viewBox="0 0 25 16" fill="none" xmlns="http://www.w3.org/2000/svg">
<path d="M12.4585 15.6586C19.5952 15.6586 24.4116 9.90179 24.4116 8.11761C24.4116 6.34222 19.5864 0.585388 12.4585 0.585388C5.42725 0.585388 0.505371 6.34222 0.505371 8.11761C0.505371 9.90179 5.41846 15.6586 12.4585 15.6586ZM12.4673 12.9164C9.78662 12.9164 7.65088 10.728 7.64209 8.1264C7.6333 5.43695 9.78662 3.32758 12.4673 3.32758C15.1304 3.32758 17.2837 5.44574 17.2837 8.1264C17.2837 10.728 15.1304 12.9164 12.4673 12.9164ZM12.4673 9.91058C13.4517 9.91058 14.269 9.10199 14.269 8.1264C14.269 7.14203 13.4517 6.32465 12.4673 6.32465C11.4653 6.32465 10.6567 7.14203 10.6567 8.1264C10.6567 9.10199 11.4653 9.91058 12.4673 9.91058Z" fill="white"/>
</svg>
