<svg width="19" height="15" viewBox="0 0 19 15" fill="none" xmlns="http://www.w3.org/2000/svg">
<path d="M3.20863 12.742C4.56215 12.742 5.45989 12.2655 7.2968 11.3816C7.95975 11.0639 8.47077 10.8084 8.89892 10.6219C9.40994 12.742 11.3366 14.3027 13.6777 14.3027C16.4054 14.3027 18.5807 12.1688 18.5807 9.5032C18.5807 8.03229 17.8487 6.5821 17.2203 5.40813L14.7135 0.719164C14.4718 0.291011 14.1196 0.0769348 13.6777 0.0769348C13.2219 0.0769348 12.8697 0.291011 12.6418 0.719164L11.3643 3.10163C11.2054 3.08091 11.0397 3.07401 10.874 3.07401C9.50662 3.07401 8.59507 3.5574 6.75816 4.44133C4.89362 5.33907 4.25139 5.68436 3.20863 5.68436C2.53188 5.68436 1.92418 5.51862 1.24051 5.10428C0.92285 4.92473 0.605188 5.03522 0.439451 5.28383C0.252998 5.56696 0.287526 5.9813 0.694962 6.21609C1.41315 6.65115 2.25565 6.92048 3.20863 6.92048C4.56215 6.92048 5.45989 6.44398 7.2968 5.56005C9.06466 4.71065 9.74832 4.35156 10.7151 4.31703L10.1281 5.40813C10.0107 5.62911 9.88644 5.8639 9.76904 6.1056C8.89892 6.29896 8.06333 6.72021 6.75816 7.34863C4.89362 8.24637 4.25139 8.59165 3.20863 8.59165C2.53188 8.59165 1.92418 8.42592 1.24051 8.01848C0.92285 7.83893 0.605188 7.94252 0.439451 8.19112C0.252998 8.48116 0.28062 8.88169 0.694962 9.12339C1.41315 9.55845 2.25565 9.82777 3.20863 9.82777C4.56215 9.82777 5.45989 9.35128 7.2968 8.47426C8.07715 8.09444 8.64341 7.81822 9.113 7.61795C8.92655 8.17041 8.79534 8.75048 8.77462 9.33056C8.20145 9.55845 7.57303 9.86921 6.75816 10.2559C4.89362 11.1537 4.25139 11.5059 3.20863 11.5059C2.53188 11.5059 1.92418 11.3401 1.24051 10.9258C0.915944 10.7393 0.591377 10.8636 0.42564 11.1191C0.252998 11.4023 0.294432 11.8028 0.694962 12.0376C1.41315 12.4657 2.25565 12.742 3.20863 12.742ZM13.6777 12.9284C11.9512 12.9284 10.5287 11.7614 10.2041 10.1869C10.4251 10.1454 10.6392 10.1316 10.874 10.1316C11.6198 10.1316 12.2413 10.3388 12.8835 10.7255C13.1943 10.9051 13.5188 10.7946 13.6846 10.546C13.871 10.2628 13.8296 9.84849 13.4291 9.6137C12.6487 9.1372 11.7924 8.8955 10.874 8.8955C10.6323 8.8955 10.4044 8.90932 10.1834 8.93694C10.2732 8.36376 10.4872 7.7975 10.7566 7.22433C10.798 7.22433 10.8325 7.22433 10.874 7.22433C11.6198 7.22433 12.2413 7.42459 12.8835 7.81131C13.2012 7.99776 13.5257 7.88037 13.6915 7.62486C13.871 7.34172 13.8296 6.93429 13.4291 6.69949C12.7937 6.31277 12.1101 6.08489 11.3781 6.00892L12.1653 4.55182C12.407 4.6416 12.6418 4.75899 12.8835 4.90401C13.1943 5.08356 13.5119 4.97307 13.6846 4.73137C13.8779 4.44824 13.8434 4.0339 13.4291 3.7922C13.2081 3.66099 12.9871 3.54359 12.7523 3.44691L13.6086 1.8586C13.6431 1.78264 13.7191 1.78955 13.7536 1.8586L15.998 6.05726C16.6264 7.23123 17.2134 8.33614 17.2134 9.5032C17.2134 11.4161 15.6389 12.9284 13.6777 12.9284Z" fill="white"/>
</svg>
