<svg width="16" height="16" viewBox="0 0 16 16" fill="none" xmlns="http://www.w3.org/2000/svg">
<path d="M8.45801 1.23002C8.45801 0.850202 8.13344 0.525635 7.75363 0.525635C7.37381 0.525635 7.05615 0.850202 7.05615 1.23002V2.63187C7.05615 3.01168 7.37381 3.32935 7.75363 3.32935C8.13344 3.32935 8.45801 3.01168 8.45801 2.63187V1.23002ZM11.2203 3.79893C10.951 4.06825 10.951 4.51712 11.2272 4.78645C11.4896 5.05577 11.9454 5.05577 12.2147 4.77954L13.2091 3.78512C13.4784 3.52271 13.4784 3.06002 13.2091 2.7907C12.9398 2.52829 12.4909 2.52829 12.2216 2.79761L11.2203 3.79893ZM3.29255 4.77954C3.55497 5.05577 4.01074 5.05577 4.28006 4.78645C4.54939 4.52403 4.54939 4.06135 4.28697 3.79893L3.29255 2.79761C3.03013 2.53519 2.57436 2.52829 2.30504 2.7907C2.03571 3.06002 2.03571 3.52271 2.29813 3.77822L3.29255 4.77954ZM7.75363 4.6069C5.76479 4.6069 4.11433 6.25045 4.11433 8.2462C4.11433 10.2419 5.76479 11.8855 7.75363 11.8855C9.74247 11.8855 11.386 10.2419 11.386 8.2462C11.386 6.25045 9.74247 4.6069 7.75363 4.6069ZM14.7629 8.95058C15.1427 8.95058 15.4604 8.62601 15.4604 8.2462C15.4604 7.86639 15.1427 7.54872 14.7629 7.54872H13.361C12.9812 7.54872 12.6636 7.86639 12.6636 8.2462C12.6636 8.62601 12.9812 8.95058 13.361 8.95058H14.7629ZM0.751256 7.54872C0.364537 7.54872 0.046875 7.86639 0.046875 8.2462C0.046875 8.62601 0.364537 8.95058 0.751256 8.95058H2.14621C2.52602 8.95058 2.85059 8.62601 2.85059 8.2462C2.85059 7.86639 2.52602 7.54872 2.14621 7.54872H0.751256ZM12.2078 11.7129C11.9385 11.4435 11.4896 11.4504 11.2203 11.7198C10.951 11.9822 10.951 12.431 11.2272 12.7073L12.2285 13.7017C12.4909 13.971 12.9467 13.9641 13.216 13.6948C13.4784 13.4255 13.4784 12.9766 13.2091 12.7073L12.2078 11.7129ZM2.29813 12.7004C2.02881 12.9697 2.0219 13.4255 2.28432 13.6879C2.55364 13.9572 3.01632 13.9641 3.27874 13.7017L4.28006 12.7073C4.54939 12.438 4.54939 11.9822 4.28697 11.7198C4.01765 11.4504 3.56187 11.4504 3.29255 11.7129L2.29813 12.7004ZM8.45801 13.8605C8.45801 13.4807 8.13344 13.1631 7.75363 13.1631C7.37381 13.1631 7.05615 13.4807 7.05615 13.8605V15.2624C7.05615 15.6422 7.37381 15.9668 7.75363 15.9668C8.13344 15.9668 8.45801 15.6422 8.45801 15.2624V13.8605Z" fill="white"/>
</svg>
