<svg width="31" height="47" viewBox="0 0 31 47" fill="none" xmlns="http://www.w3.org/2000/svg">
<path d="M8.25977 16.5859H21.6445C25.2432 16.5859 27.9395 13.8574 27.9395 10.4521C27.9395 6.9502 25.1143 4.36133 21.4297 4.36133C20.1084 1.76172 17.6484 0 14.3936 0C10.2793 0 6.93848 3.16895 6.54102 7.17578C4.55371 7.7666 3.06055 9.48535 3.06055 11.8057C3.06055 14.4697 5.00488 16.5859 8.25977 16.5859ZM17.1436 21.7529L18.5293 19.3574C18.7334 19.0029 18.626 18.5947 18.2822 18.3906C17.9277 18.1865 17.5303 18.3047 17.3262 18.6592L15.9297 21.0762C15.7363 21.4092 15.8223 21.8174 16.1875 22.0215C16.5312 22.2256 16.9502 22.0967 17.1436 21.7529ZM8.59277 21.7637L9.97852 19.3682C10.1826 19.0137 10.0752 18.6055 9.73145 18.4014C9.37695 18.1973 8.99023 18.3154 8.77539 18.6699L7.37891 21.0869C7.18555 21.4199 7.28223 21.8281 7.63672 22.0322C7.98047 22.2256 8.39941 22.1074 8.59277 21.7637ZM20.5059 24.7822L21.8916 22.376C22.1064 22.0322 21.999 21.6133 21.6445 21.4092C21.3008 21.2158 20.9033 21.3232 20.6885 21.6885L19.3027 24.1055C19.0986 24.4385 19.1953 24.8467 19.5498 25.0508C19.8936 25.2441 20.3125 25.1152 20.5059 24.7822ZM11.9658 24.7822L13.3516 22.3867C13.5557 22.043 13.4482 21.624 13.1045 21.4199C12.75 21.2158 12.3525 21.334 12.1484 21.6992L10.752 24.1055C10.5586 24.4385 10.6445 24.8574 11.0098 25.0615C11.3535 25.2549 11.7725 25.126 11.9658 24.7822Z" fill="white"/>
<path d="M3.20801 37.4422V36.0213H4.48242C5.02441 36.0213 5.46387 35.8724 5.80078 35.5745C6.1377 35.2718 6.30615 34.8836 6.30615 34.41C6.30615 33.9412 6.14502 33.5677 5.82275 33.2894C5.50537 33.011 5.05615 32.8719 4.4751 32.8719C3.93311 32.8719 3.49121 33.0208 3.14941 33.3187C2.80762 33.6116 2.61719 34.0047 2.57812 34.4979H0.820312C0.874023 33.5457 1.23779 32.7864 1.91162 32.22C2.59033 31.6536 3.47412 31.3704 4.56299 31.3704C5.60791 31.3704 6.4624 31.6292 7.12646 32.1468C7.79053 32.6644 8.12256 33.3333 8.12256 34.1536C8.12256 34.803 7.92236 35.3524 7.52197 35.8016C7.12646 36.2459 6.59912 36.5242 5.93994 36.6365V36.6805C6.73584 36.7391 7.36816 36.9979 7.83691 37.4568C8.31055 37.9109 8.54736 38.5042 8.54736 39.2366C8.54736 40.1644 8.16895 40.9188 7.41211 41.4998C6.66016 42.076 5.70312 42.3641 4.54102 42.3641C3.38867 42.3641 2.4585 42.076 1.75049 41.4998C1.04248 40.9188 0.664062 40.1546 0.615234 39.2073H2.41699C2.46094 39.6956 2.67334 40.0862 3.0542 40.3792C3.43506 40.6722 3.93555 40.8187 4.55566 40.8187C5.16602 40.8187 5.66406 40.6649 6.0498 40.3572C6.43555 40.0496 6.62842 39.6517 6.62842 39.1634C6.62842 38.6312 6.43799 38.2112 6.05713 37.9036C5.68115 37.596 5.16602 37.4422 4.51172 37.4422H3.20801ZM13.9819 42.3641C12.6929 42.3641 11.6797 41.8734 10.9424 40.8919C10.21 39.9056 9.84375 38.5604 9.84375 36.8563C9.84375 35.1619 10.2124 33.824 10.9497 32.8426C11.687 31.8611 12.6978 31.3704 13.9819 31.3704C15.2661 31.3704 16.2744 31.8611 17.0068 32.8426C17.7393 33.8192 18.1055 35.1546 18.1055 36.8489C18.1055 38.5482 17.7393 39.8934 17.0068 40.8846C16.2744 41.8709 15.2661 42.3641 13.9819 42.3641ZM13.9819 40.8187C14.6802 40.8187 15.2222 40.4695 15.6079 39.7713C15.9985 39.0731 16.1938 38.1014 16.1938 36.8563C16.1938 35.6209 15.9985 34.6566 15.6079 33.9632C15.2173 33.265 14.6753 32.9158 13.9819 32.9158C13.2886 32.9158 12.7417 33.265 12.3413 33.9632C11.9458 34.6614 11.748 35.6234 11.748 36.8489C11.748 38.0941 11.9434 39.0682 12.334 39.7713C12.7295 40.4695 13.2788 40.8187 13.9819 40.8187ZM23.1226 32.1395C23.5474 32.6229 23.7598 33.2772 23.7598 34.1024C23.7598 34.9276 23.5474 35.5843 23.1226 36.0726C22.6978 36.5609 22.1289 36.805 21.416 36.805C20.7031 36.805 20.1343 36.5609 19.7095 36.0726C19.2896 35.5843 19.0796 34.9276 19.0796 34.1024C19.0796 33.2772 19.2896 32.6229 19.7095 32.1395C20.1343 31.6512 20.7031 31.407 21.416 31.407C22.1289 31.407 22.6978 31.6512 23.1226 32.1395ZM21.416 35.6551C21.6895 35.6551 21.9019 35.5184 22.0532 35.2449C22.2095 34.9666 22.2876 34.5858 22.2876 34.1024C22.2876 33.6141 22.2095 33.2332 22.0532 32.9598C21.9019 32.6815 21.6895 32.5423 21.416 32.5423C21.1475 32.5423 20.9351 32.6815 20.7788 32.9598C20.6274 33.2332 20.5518 33.6141 20.5518 34.1024C20.5518 34.5858 20.6274 34.9666 20.7788 35.2449C20.9351 35.5184 21.1475 35.6551 21.416 35.6551ZM21.5625 42.1517H19.9658L24.0601 36.5486L27.6929 31.5828H29.2749L25.2905 37.0394L21.5625 42.1517ZM29.5312 37.618C29.9561 38.1063 30.1685 38.763 30.1685 39.5882C30.1685 40.4134 29.9561 41.0701 29.5312 41.5584C29.1064 42.0418 28.5376 42.2835 27.8247 42.2835C27.1118 42.2835 26.543 42.0418 26.1182 41.5584C25.6982 41.0701 25.4883 40.4134 25.4883 39.5882C25.4883 38.763 25.6982 38.1063 26.1182 37.618C26.543 37.1297 27.1118 36.8856 27.8247 36.8856C28.5376 36.8856 29.1064 37.1297 29.5312 37.618ZM27.1875 40.7234C27.3438 41.0018 27.5562 41.1409 27.8247 41.1409C28.0933 41.1409 28.3057 41.0018 28.4619 40.7234C28.6182 40.4451 28.6963 40.0643 28.6963 39.5809C28.6963 39.0975 28.6182 38.7166 28.4619 38.4383C28.3057 38.16 28.0933 38.0208 27.8247 38.0208C27.5562 38.0208 27.3438 38.16 27.1875 38.4383C27.0361 38.7166 26.9604 39.0975 26.9604 39.5809C26.9604 40.0643 27.0361 40.4451 27.1875 40.7234Z" fill="#23ABF7"/>
</svg>
