<svg width="16" height="14" viewBox="0 0 16 14" fill="none" xmlns="http://www.w3.org/2000/svg">
<path d="M1.56067 5.25244C2.55509 4.94169 3.58403 4.78286 4.56464 4.78286C5.82838 4.78286 6.76065 4.98312 7.96224 4.98312C9.22598 4.98312 10.0409 4.113 10.0409 2.98047C10.0409 1.82031 9.16383 0.984726 8.05202 0.984726C7.25786 0.984726 6.54658 1.47503 6.23582 2.15179C6.10461 2.4142 6.15986 2.71115 6.42918 2.84926C6.67778 2.98738 6.98854 2.90451 7.15428 2.59375C7.2993 2.26918 7.65149 2.01367 8.05202 2.01367C8.59757 2.01367 9.01881 2.38658 9.01881 2.98047C9.01881 3.57436 8.60447 3.95417 7.96224 3.95417C6.82971 3.95417 5.87672 3.75391 4.56464 3.75391C3.43901 3.75391 2.29267 3.95417 1.24991 4.27184C0.925342 4.36161 0.794134 4.64474 0.870097 4.92097C0.952965 5.1972 1.21538 5.34912 1.56067 5.25244ZM12.3957 8.56717C14.0323 8.56717 15.1994 7.51751 15.1994 6.0535C15.1994 4.61712 14.0945 3.56055 12.7065 3.56055C11.4772 3.56055 10.5243 4.39614 10.3171 5.52177C10.248 5.83252 10.4138 6.10875 10.69 6.16399C10.9731 6.22615 11.2424 6.06041 11.3253 5.70822C11.4496 5.03837 12.0297 4.58259 12.7065 4.58259C13.5213 4.58259 14.1705 5.18339 14.1705 6.0535C14.1705 6.93743 13.473 7.54513 12.3957 7.54513C10.2895 7.54513 7.99677 6.34354 5.22759 6.34354C3.79811 6.34354 2.49293 6.57143 1.243 6.99958C0.932248 7.10317 0.794134 7.3794 0.870097 7.65562C0.952965 7.93185 1.22919 8.09068 1.56067 7.97329C2.70011 7.55894 3.88098 7.37249 5.22759 7.37249C7.96915 7.37249 10.0409 8.56717 12.3957 8.56717ZM7.97605 13.5117C9.06715 13.5117 9.92346 12.6899 9.92346 11.5297C9.92346 9.85854 8.21775 8.93318 5.10329 8.93318C3.82573 8.93318 2.43078 9.17488 1.24991 9.57541C0.932248 9.6859 0.794134 9.96212 0.870097 10.2314C0.952965 10.5146 1.22919 10.6734 1.56067 10.556C2.65867 10.1693 3.87407 9.95522 5.10329 9.95522C7.56171 9.95522 8.89451 10.5698 8.89451 11.5297C8.89451 12.1236 8.48707 12.4827 7.97605 12.4827C7.47194 12.4827 7.16118 12.1512 7.0576 11.6195C6.98163 11.3364 6.74684 11.1361 6.42918 11.1913C6.10461 11.2397 5.9734 11.5435 6.04246 11.8543C6.22201 12.7866 6.9402 13.5117 7.97605 13.5117Z" fill="white"/>
</svg>
