<svg width="10" height="16" viewBox="0 0 10 16" fill="none" xmlns="http://www.w3.org/2000/svg">
<path d="M3.84842 15.948C5.93394 15.948 7.62584 14.2631 7.62584 12.1706C7.62584 11.1003 7.19078 10.1611 6.369 9.40145C6.22398 9.27024 6.18945 9.18737 6.18945 8.99401L6.19636 2.94463C6.19636 1.39775 5.25028 0.368805 3.84842 0.368805C2.43276 0.368805 1.47287 1.39775 1.47287 2.94463L1.48668 8.99401C1.48668 9.18737 1.45215 9.27024 1.30713 9.40145C0.478446 10.1542 0.050293 11.1003 0.050293 12.1706C0.050293 14.2631 1.74219 15.948 3.84842 15.948ZM3.84842 14.7465C2.41204 14.7465 1.25879 13.5863 1.25879 12.1568C1.25879 11.2798 1.67313 10.5202 2.39823 10.0299C2.6123 9.89175 2.69517 9.76055 2.69517 9.48432V2.99297C2.69517 2.12976 3.15785 1.5773 3.84842 1.5773C4.51828 1.5773 4.98096 2.12976 4.98096 2.99297V9.48432C4.98096 9.76055 5.06383 9.89175 5.2779 10.0299C6.003 10.5202 6.41734 11.2798 6.41734 12.1568C6.41734 13.5863 5.26409 14.7465 3.84842 14.7465ZM7.51535 3.06893H9.02769C9.29011 3.06893 9.45585 2.87557 9.45585 2.64768C9.45585 2.4198 9.29011 2.22644 9.02769 2.22644H7.51535C7.25293 2.22644 7.08029 2.4198 7.08029 2.64768C7.08029 2.87557 7.25293 3.06893 7.51535 3.06893ZM7.51535 4.98181H9.02769C9.29011 4.98181 9.45585 4.78845 9.45585 4.56056C9.45585 4.33267 9.29011 4.13931 9.02769 4.13931H7.51535C7.25293 4.13931 7.08029 4.33267 7.08029 4.56056C7.08029 4.78845 7.25293 4.98181 7.51535 4.98181ZM7.51535 6.90849H9.02769C9.29011 6.90849 9.45585 6.71514 9.45585 6.48725C9.45585 6.25936 9.29011 6.066 9.02769 6.066H7.51535C7.25293 6.066 7.08029 6.25936 7.08029 6.48725C7.08029 6.71514 7.25293 6.90849 7.51535 6.90849ZM3.83461 13.8142C4.75307 13.8142 5.49198 13.0753 5.49198 12.1499C5.49198 11.5146 5.13288 10.9829 4.60114 10.6997C4.38016 10.5823 4.31111 10.4995 4.31111 10.168V6.63917C4.31111 6.28698 4.10393 6.066 3.83461 6.066C3.5722 6.066 3.36503 6.28698 3.36503 6.63917V10.168C3.36503 10.4995 3.29597 10.5823 3.07499 10.6997C2.54325 10.9829 2.18415 11.5146 2.18415 12.1499C2.18415 13.0753 2.92306 13.8142 3.83461 13.8142ZM7.51535 8.82828H9.02769C9.29011 8.82828 9.45585 8.63492 9.45585 8.40703C9.45585 8.17914 9.29011 7.98578 9.02769 7.98578H7.51535C7.25293 7.98578 7.08029 8.17914 7.08029 8.40703C7.08029 8.63492 7.25293 8.82828 7.51535 8.82828Z" fill="white"/>
</svg>
