<svg width="142" height="142" viewBox="0 0 142 142" fill="none" xmlns="http://www.w3.org/2000/svg">
<path opacity="0.45" d="M70.9359 0.685852L71.0722 8.46731M67.2493 0.788173L67.7944 8.54919M63.5761 1.07416L64.5232 8.8011M59.9248 1.56478L61.2807 9.22359M56.3056 2.23953L58.0568 9.81656M52.7224 3.09808L54.8688 10.5797M49.1921 4.14714L51.7269 11.5061M45.7244 5.38047L48.634 12.5964M42.3176 6.79792L45.6087 13.8503M38.9922 8.3855L42.6512 15.2539M35.7623 10.1435L39.7689 16.8143M32.6212 12.072L36.9685 18.5247M29.589 14.1637L34.2701 20.378M26.6656 16.4122L31.667 22.3675M23.8657 18.8039L29.1737 24.4935M21.1947 21.3455L26.7957 26.7489M18.6666 24.0165L24.5401 29.1201M16.2741 26.8239L22.4066 31.614M14.0331 29.7471L20.4109 34.2102M11.9477 32.786L18.5504 36.9084M10.0266 35.9271L16.8336 39.702M8.2751 39.1637L15.2661 42.5775M6.69451 42.4889L13.8559 45.5347M5.28421 45.8959L12.5955 48.5602M4.05696 49.3709L11.4977 51.6468M3.0152 52.9006L10.565 54.7881M2.15649 56.4848L9.79485 57.9702M1.48874 60.1097L9.19524 61.1931M1.01134 63.7621L8.76554 64.4434M0.732198 67.4345L8.50684 67.7071M0.636719 71.121L8.41817 70.9848M0.738888 74.8004L8.4999 74.2552M1.02533 78.473L8.75227 77.5259M1.5155 82.1253L9.1743 80.7762M2.19054 85.7435L9.76758 83.9992M3.04865 89.3276L10.5303 87.1812M4.09831 92.8574L11.4573 90.3226M5.33165 96.3321L12.5475 93.4158M6.74924 99.7323L13.8016 96.4412M8.33713 103.058L15.2055 99.4053M10.0947 106.294L16.7655 102.281M12.0231 109.428L18.4759 105.081M14.1146 112.468L20.3288 107.78M16.3635 115.384L22.3188 110.383M18.7554 118.184L24.445 112.876M21.2968 120.856L26.7002 115.255M23.9672 123.39L29.0708 117.517M26.7751 125.775L31.5652 119.643M29.6978 128.017L34.1609 121.646M32.7368 130.102L36.8591 123.499M35.8785 132.023L39.6534 125.216M39.115 133.775L42.5288 126.784M42.4398 135.362L45.4856 128.194M45.8467 136.766L48.5109 129.455M49.3222 137.992L51.5981 130.552M52.8513 139.035L54.7388 131.485M56.4358 139.893L57.9212 132.255M60.061 140.561L61.1444 132.855M63.7129 141.038L64.3943 133.284M67.3862 141.324L67.6587 133.543M71.0722 141.413L70.9359 133.638M74.7511 141.318L74.206 133.557M78.4243 141.025L77.4772 133.298M82.0763 140.541L80.7272 132.875M85.6947 139.866L83.9504 132.282M89.2792 139.001L87.1328 131.519M92.8081 137.952L90.2733 130.593M96.2833 136.718L93.367 129.502M99.6836 135.308L96.3925 128.255M103.009 133.713L99.3567 126.845M106.245 131.955L102.232 125.285M109.38 130.027L105.033 123.574M112.419 127.935L107.731 121.721M115.335 125.693L110.333 119.731M118.135 123.295L112.827 117.605M120.806 120.76L115.205 115.35M123.341 118.082L117.467 112.979M125.726 115.282L119.593 110.492M127.967 112.352L121.596 107.889M130.053 109.32L123.45 105.19M131.974 106.172L125.167 102.404M133.725 102.935L126.734 99.5212M135.314 99.6097L128.145 96.5707M136.717 96.2029L129.405 93.5455M137.943 92.7277L130.503 90.4518M138.986 89.1982L131.437 87.3107M139.845 85.614L132.207 84.1286M140.512 81.9891L132.806 80.9057M140.989 78.3368L133.235 77.6623M141.275 74.6642L133.494 74.3916M141.364 70.9848L133.589 71.121M141.268 67.2983L133.507 67.8434M140.976 63.6255L133.249 64.5727M140.491 59.9734L132.826 61.3294M139.818 56.3552L132.234 58.1064M138.952 52.7711L131.47 54.9175M137.903 49.2417L130.544 51.7765M136.669 45.7733L129.453 48.6828M135.259 42.3664L128.207 45.6575M133.664 39.0412L126.796 42.7002M131.906 35.8114L125.235 39.818M129.978 32.6702L123.525 37.0174M127.886 29.6379L121.672 34.3191M125.644 26.7149L119.682 31.7163M123.246 23.9145L117.556 29.2225M120.711 21.2433L115.301 26.8443M118.034 18.7154L112.93 24.589M115.233 16.3237L110.443 22.4562M112.303 14.0821L107.84 20.4598M109.271 11.9969L105.141 18.5995M106.122 10.0754L102.354 16.8825M102.886 8.32423L99.4722 15.3153M99.5604 6.74334L96.5215 13.9047M96.1539 5.33273L93.4965 12.644M92.6793 4.10655L90.4035 11.5473M89.1492 3.06403L87.2617 10.6138M85.5653 2.20532L84.0799 9.84368M81.9407 1.53757L80.8573 9.24407M78.288 1.06063L77.6134 8.81482M74.6153 0.78118L74.3428 8.55582" stroke="black" stroke-width="0.551925" stroke-miterlimit="10"/>
<path d="M64.2896 64.6543V51.2115H64.2222L60.0332 54.1538V51.4248L64.2671 48.4488H67.1309V64.6543H64.2896ZM70.7808 53.2554C70.7808 51.758 71.3198 50.5301 72.3979 49.5718C73.4761 48.606 74.8537 48.1231 76.5308 48.1231C78.1405 48.1231 79.4657 48.5611 80.5063 49.437C81.5545 50.313 82.0786 51.4099 82.0786 52.7276C82.0786 53.6335 81.8241 54.4908 81.3149 55.2993C80.8133 56.1005 79.9785 57.0887 78.8105 58.2642L74.8013 62.2285V62.2847H82.3257V64.6543H70.938V62.7002L76.9014 56.7705C77.8223 55.8272 78.4437 55.0897 78.7656 54.5581C79.0876 54.0266 79.2485 53.4576 79.2485 52.8511C79.2485 52.1773 78.979 51.6083 78.4399 51.1441C77.9084 50.6799 77.242 50.4478 76.4409 50.4478C75.5949 50.4478 74.8911 50.7136 74.3296 51.2451C73.7756 51.7767 73.4985 52.4431 73.4985 53.2442V53.2891H70.7808V53.2554Z" fill="black"/>
<path d="M67.3979 22.321H65.6958V12.4567H67.2271L72.1216 19.3679H72.1831V12.4567H73.8784V22.321H72.3608L67.4595 15.403H67.3979V22.321Z" fill="#3F3F3F"/>
<path d="M66.5269 122.015H68.2358C68.2905 122.466 68.5229 122.83 68.9331 123.108C69.3433 123.382 69.8514 123.519 70.4575 123.519C71.05 123.519 71.533 123.386 71.9067 123.122C72.285 122.858 72.4741 122.521 72.4741 122.11C72.4741 121.755 72.3374 121.468 72.064 121.249C71.7905 121.026 71.3439 120.841 70.7241 120.695L69.4458 120.395C68.5389 120.185 67.8644 119.859 67.4224 119.417C66.9849 118.975 66.7661 118.401 66.7661 117.694C66.7661 116.824 67.1079 116.118 67.7915 115.575C68.4751 115.033 69.3569 114.762 70.437 114.762C71.5216 114.762 72.3944 115.031 73.0552 115.568C73.7205 116.102 74.0646 116.803 74.0874 117.674H72.4058C72.3647 117.214 72.1665 116.854 71.811 116.594C71.4556 116.33 70.993 116.197 70.4233 116.197C69.8674 116.197 69.4162 116.323 69.0698 116.573C68.728 116.824 68.5571 117.154 68.5571 117.565C68.5571 117.893 68.6893 118.159 68.9536 118.364C69.2225 118.569 69.66 118.745 70.2661 118.891L71.4009 119.15C72.3989 119.378 73.1235 119.711 73.5747 120.149C74.0259 120.586 74.2515 121.172 74.2515 121.905C74.2515 122.84 73.9006 123.582 73.1987 124.134C72.5015 124.681 71.5558 124.954 70.3618 124.954C69.2225 124.954 68.3065 124.692 67.6138 124.168C66.9256 123.639 66.5633 122.922 66.5269 122.015Z" fill="#3F3F3F"/>
<path d="M59.8276 85.0494V77.4322H61.0288V78.648H61.0581C61.2437 78.233 61.5244 77.9058 61.9004 77.6666C62.2764 77.4224 62.7158 77.3004 63.2188 77.3004C63.7363 77.3004 64.1807 77.4273 64.5518 77.6812C64.9229 77.9302 65.1914 78.2867 65.3574 78.7505H65.3867C65.5967 78.2964 65.9116 77.9424 66.3315 77.6885C66.7563 77.4297 67.2373 77.3004 67.7744 77.3004C68.5264 77.3004 69.127 77.5274 69.5762 77.9815C70.0303 78.4307 70.2573 79.0338 70.2573 79.7906V85.0494H68.9829V80.0836C68.9829 79.5611 68.8438 79.1558 68.5654 78.8677C68.292 78.5748 67.9038 78.4283 67.4009 78.4283C66.8979 78.4283 66.4854 78.5967 66.1631 78.9337C65.8408 79.2657 65.6797 79.6905 65.6797 80.2081V85.0494H64.4053V79.9444C64.4053 79.4854 64.2637 79.1192 63.9805 78.8458C63.6973 78.5674 63.3188 78.4283 62.8452 78.4283C62.3423 78.4283 61.9248 78.6041 61.5928 78.9556C61.2656 79.3072 61.1021 79.7466 61.1021 80.274V85.0494H59.8276ZM72.147 87.2979H71.0557L74.7983 74.4805H75.8896L72.147 87.2979ZM76.5854 79.5342C76.5854 78.8799 76.8491 78.3453 77.3765 77.9302C77.9087 77.5103 78.5923 77.3004 79.4272 77.3004C80.2134 77.3004 80.8677 77.5103 81.3901 77.9302C81.9126 78.3502 82.1885 78.8824 82.2178 79.5269H81.002C80.958 79.1558 80.792 78.8653 80.5039 78.6553C80.2207 78.4454 79.8472 78.3404 79.3833 78.3404C78.9194 78.3404 78.5459 78.4454 78.2627 78.6553C77.9795 78.8604 77.8379 79.1314 77.8379 79.4683C77.8379 79.9859 78.2603 80.3521 79.105 80.567L80.2842 80.8526C81.0508 81.0479 81.5903 81.3018 81.9028 81.6143C82.2202 81.9219 82.3789 82.3565 82.3789 82.918C82.3789 83.5821 82.0957 84.1265 81.5293 84.5513C80.9629 84.9713 80.2354 85.1812 79.3467 85.1812C78.5166 85.1812 77.8306 84.9761 77.2886 84.566C76.7515 84.1509 76.4487 83.6041 76.3804 82.9254H77.6548C77.7964 83.7359 78.3872 84.1412 79.4272 84.1412C79.9399 84.1412 80.3452 84.0411 80.6431 83.8409C80.9458 83.6358 81.0972 83.3599 81.0972 83.0132C81.0972 82.7398 81.0068 82.5225 80.8262 82.3614C80.6504 82.2003 80.3501 82.0635 79.9253 81.9512L78.585 81.607C77.252 81.2652 76.5854 80.5743 76.5854 79.5342Z" fill="black"/>
<path d="M18.3584 67.0361L16.3418 74.1729H14.6807L12.0352 64.3086H13.8672L15.5762 71.7803H15.6309L17.6133 64.3086H19.1719L21.1543 71.7803H21.209L22.918 64.3086H24.75L22.1045 74.1729H20.4434L18.4268 67.0361H18.3584Z" fill="#3F3F3F"/>
<path d="M127.636 72.6826V74.1729H121.251V64.3086H127.636V65.7988H123.015V68.4648H127.383V69.8662H123.015V72.6826H127.636Z" fill="#3F3F3F"/>
<path fill-rule="evenodd" clip-rule="evenodd" d="M22.9963 122.822C22.9132 123.065 23.1557 123.294 23.394 123.196L36.1009 117.985C36.2708 117.916 36.2649 117.673 36.0918 117.612L31.1774 115.87L47.3931 98.6383L45.595 96.9462L29.5681 113.978L27.7991 109.808C27.7274 109.639 27.4849 109.648 27.4257 109.822L22.9963 122.822Z" fill="#141414"/>
<path fill-rule="evenodd" clip-rule="evenodd" d="M95.4788 44.5698L97.2769 46.2619L114.434 28.0294C116.323 29.4199 118.996 29.2121 120.644 27.461C122.424 25.5692 122.333 22.5923 120.442 20.8121C118.55 19.0318 115.573 19.1223 113.793 21.0141C112.475 22.4141 112.182 24.4082 112.886 26.0719L95.4788 44.5698ZM119.187 26.0904C118.164 27.1779 116.453 27.2299 115.365 26.2066C114.278 25.1833 114.226 23.4722 115.249 22.3847C116.272 21.2973 117.984 21.2453 119.071 22.2686C120.158 23.2919 120.21 25.003 119.187 26.0904Z" fill="#141414"/>
<path d="M71.1983 1.32459C71.3954 1.02106 71.8397 1.02106 72.0369 1.32459L75.9272 7.31407C76.1432 7.64671 75.9045 8.08642 75.5078 8.08642H67.7273C67.3306 8.08642 67.0919 7.64671 67.308 7.31407L71.1983 1.32459Z" fill="#757070"/>
</svg>
