<svg width="18" height="14" viewBox="0 0 18 14" fill="none" xmlns="http://www.w3.org/2000/svg">
<path d="M8.98235 5.35743C9.28369 5.35743 9.54109 5.08748 9.54109 4.75475V2.53865L9.44692 1.54674L9.89265 2.0992L10.6146 2.83999C10.7151 2.95299 10.8532 3.02833 11.0038 3.02833C11.2926 3.02833 11.4935 2.82743 11.4935 2.55121C11.4935 2.39426 11.4245 2.27498 11.2989 2.1557L9.37158 0.347663C9.22719 0.215827 9.12047 0.165604 8.98235 0.165604C8.83796 0.165604 8.73124 0.215827 8.58684 0.347663L6.65953 2.1557C6.53397 2.27498 6.46491 2.39426 6.46491 2.55121C6.46491 2.82743 6.66581 3.02833 6.95459 3.02833C7.10526 3.02833 7.24337 2.95299 7.34382 2.83999L8.116 2.04897L8.51151 1.54674L8.41734 2.53865V4.75475C8.41734 5.08748 8.67473 5.35743 8.98235 5.35743ZM12.2217 7.02735C12.4415 7.2408 12.8056 7.2408 13.0504 6.99596L14.0737 5.97266C14.3248 5.72782 14.3186 5.36998 14.0988 5.15026C13.8917 4.93053 13.5276 4.93053 13.2827 5.17537L12.2531 6.20495C12.0083 6.44351 12.002 6.8139 12.2217 7.02735ZM4.91427 6.99596C5.15911 7.2408 5.52323 7.24708 5.73668 7.02735C5.9564 6.80762 5.95013 6.44351 5.71157 6.20495L4.68199 5.17537C4.43715 4.93053 4.07931 4.93681 3.85958 5.15026C3.63986 5.36371 3.63986 5.72782 3.8847 5.97266L4.91427 6.99596ZM12.385 10.2605C12.385 8.38966 10.8469 6.84529 8.98235 6.84529C7.11782 6.84529 5.57345 8.38966 5.57345 10.2605C5.57345 10.6623 5.65506 11.0452 5.80573 11.3968H12.159C12.3034 11.0452 12.385 10.6623 12.385 10.2605ZM2.34033 10.5806H3.79053C4.13581 10.5806 4.40576 10.3295 4.39948 10.0219C4.39321 9.71429 4.13581 9.46318 3.79053 9.46318H2.34033C1.99505 9.46318 1.73765 9.71429 1.73765 10.0219C1.73765 10.3295 2.00133 10.5806 2.34033 10.5806ZM14.1742 10.5806H15.6244C15.9697 10.5806 16.227 10.3295 16.227 10.0219C16.227 9.71429 15.9697 9.46318 15.6244 9.46318H14.1742C13.8289 9.46318 13.5589 9.71429 13.5652 10.0219C13.5715 10.3295 13.8289 10.5806 14.1742 10.5806ZM1.56187 13.4057H16.3966C16.7418 13.4057 17.0243 13.1295 17.0243 12.803C17.0243 12.4703 16.7418 12.2003 16.3966 12.2003H1.56187C1.21659 12.2003 0.934082 12.4766 0.934082 12.803C0.934082 13.1232 1.22287 13.4057 1.56187 13.4057Z" fill="white"/>
</svg>
